<svg xmlns="http://www.w3.org/2000/svg" xml:space="preserve" width="480.89999" height="141.2" viewBox="0 0 480.89997 141.19999"><defs><clipPath id="a" clipPathUnits="userSpaceOnUse"><path d="M0 595.28h841.89V0H0Z"/></clipPath></defs><g clip-path="url(#a)" style="fill:#ff2c2e;fill-opacity:1" transform="matrix(1.33333 0 0 -1.33333 -320.73 467.22)"><g style="fill:#ff2c2e;fill-opacity:1"><path d="M0 0h-20.837v18.886a1.972 1.972 0 0 1-1.972 1.972h-19.492a1.971 1.971 0 0 1-1.972-1.972V0h-13.608a1.972 1.972 0 0 1-1.973-1.972v-18.533c0-1.089.883-1.972 1.973-1.972h13.608v-39.377c0-11.717 9.498-21.214 21.213-21.214H0c1.089 0 1.972.883 1.972 1.972v18.532c0 1.09-.883 1.973-1.972 1.973h-15.62a5.217 5.217 0 0 0-5.217 5.216v32.898H0c1.089 0 1.972.883 1.972 1.972v18.533A1.972 1.972 0 0 1 0 0" style="fill:#ff2c2e;fill-opacity:1;fill-rule:nonzero;stroke:none" transform="translate(497.247 329.557)"/></g><g style="fill:#ff2c2e;fill-opacity:1"><path d="M0 0c-12.011 0-21.781 9.771-21.781 21.781 0 12.008 9.77 21.779 21.781 21.779 12.008 0 21.778-9.771 21.778-21.779C21.778 9.771 12.008 0 0 0m1.278 64.523c-2.035.03-1.683.047-2.863.047-24.555 0-44.347-20.788-42.695-45.69 1.378-20.77 17.93-37.816 38.66-39.705 10.528-.96 20.713 1.847 29.141 7.964l.979.711v-5.827c0-1.095.887-1.983 1.982-1.983H44.04a1.98 1.98 0 0 1 1.979 1.981V18.75c0 29.219-21.054 45.422-44.741 45.773" style="fill:#ff2c2e;fill-opacity:1;fill-rule:nonzero;stroke:none" transform="translate(383.183 266.454)"/></g><g style="fill:#ff2c2e;fill-opacity:1"><path d="M0 0h-49.108a1.998 1.998 0 0 1-1.998-1.999v-79.097c0-1.089.882-1.972 1.972-1.972h20.509c1.089 0 1.972.883 1.972 1.972v57.137h21.061c8.774 0 15.886-7.113 15.886-15.887v-41.25c0-1.089.883-1.972 1.972-1.972h20.609c1.088 0 1.972.883 1.972 1.972v46.25C34.847-15.602 19.245 0 0 0" style="fill:#ff2c2e;fill-opacity:1;fill-rule:nonzero;stroke:none" transform="translate(291.653 329.557)"/></g><g style="fill:#ff2c2e;fill-opacity:1"><path d="M0 0c10.266 0 19.056-5.902 22.749-14.284H-22.75C-19.057-5.902-10.267 0 0 0m0-45.413c-6.324 0-12.623 2.312-16.91 6.062-2.501 2.187-4.513 4.856-5.84 7.868h66.071c.982 0 1.846.694 2.011 1.661a41.451 41.451 0 0 1-.317 15.538C40.797 5.598 22.248 20.575 0 20.575c-22.249 0-40.798-14.977-45.016-34.859a41.52 41.52 0 0 1-.902-8.6c0-2.945.314-5.819.902-8.599a41.414 41.414 0 0 1 2.519-7.868C-35.64-55.185-19.2-66.343 0-66.343c18.217 0 33.927 10.056 41.345 24.61.345.678-.169 1.484-.929 1.484H17.354c-.735 0-1.438-.248-2.04-.669C11.319-43.727 5.376-45.413 0-45.413" style="fill:#ff2c2e;fill-opacity:1;fill-rule:nonzero;stroke:none" transform="translate(555.22 310.902)"/></g></g></svg>